<?xml version="1.0" encoding="UTF-8"?>
<!DOCTYPE svg PUBLIC "-//W3C//DTD SVG 1.1//EN" "http://www.w3.org/Graphics/SVG/1.1/DTD/svg11.dtd">
<svg version="1.1" xmlns="http://www.w3.org/2000/svg" xmlns:xlink="http://www.w3.org/1999/xlink" x="0" y="0" width="32" height="32" viewBox="0, 0, 32, 32">
  <defs>
    <linearGradient id="Gradient_1" gradientUnits="userSpaceOnUse" x1="11" y1="0.094" x2="11" y2="23" gradientTransform="matrix(1, 0, 0, 1, 5, 3)">
      <stop offset="0" stop-color="#FF9123"/>
      <stop offset="1" stop-color="#F76C1C"/>
    </linearGradient>
  </defs>
  <g id="Page-1">
    <path d="M5,4.003 C5,3.449 5.439,3 6.002,3 L25.998,3 C26.551,3 27,3.439 27,4.003 L27,26 L5,26 L5,4.003 z" fill="url(#Gradient_1)" id="Rectangle-1"/>
    <path d="M5,23.009 C5,22.452 5.439,22 6.002,22 L25.998,22 C26.551,22 27,22.443 27,23.009 L27,26 L14.11,26 L5,26 L5,23.009 z" fill="#FFFFFF" id="Rectangle-3"/>
    <path d="M5,26.009 C5,25.452 5.439,25 6.002,25 L25.998,25 C26.551,25 27,25.443 27,26.009 L27,27.991 C27,28.548 26.561,29 25.998,29 L6.002,29 C5.449,29 5,28.557 5,27.991 L5,26.009 z" fill="#DCDDDD" id="Rectangle-1"/>
    <path d="M24,26 L25,26 L25,28 L24,28 L24,26 z M22,26 L23,26 L23,28 L22,28 L22,26 z M20,26 L21,26 L21,28 L20,28 L20,26 z M18,26 L19,26 L19,28 L18,28 L18,26 z" fill="#F9731E" id="Combined-Shape"/>
    <path d="M8,28 C8.552,28 9,27.552 9,27 C9,26.448 8.552,26 8,26 C7.448,26 7,26.448 7,27 C7,27.552 7.448,28 8,28 z" fill="#F8731D" id="Oval"/>
    <g>
      <path d="M8.262,12.06 L7.841,13.521 L7.396,12.06 L6.861,12.06 L7.542,14.013 L8.101,14.013 L8.301,13.438 L8.475,12.788 L8.648,13.438 L8.849,14.013 L9.408,14.013 L10.085,12.06 L9.553,12.06 L9.108,13.521 L8.683,12.06 z" fill="#FFFFFF"/>
      <path d="M10.49,11.249 L10.49,14.005 L10.971,14.005 L10.971,13.013 C10.971,12.721 11.167,12.481 11.451,12.481 C11.707,12.481 11.892,12.631 11.892,12.985 L11.892,14.005 L12.372,14.005 L12.372,12.981 C12.372,12.41 12.128,12.036 11.577,12.036 C11.356,12.036 11.144,12.103 10.971,12.328 L10.971,11.249 z" fill="#FFFFFF"/>
      <path d="M13.258,12.056 L13.258,14.005 L12.778,14.005 L12.778,12.056 z M12.734,11.517 C12.734,11.143 13.301,11.143 13.301,11.517 C13.301,11.891 12.734,11.891 12.734,11.517 z" fill="#FFFFFF"/>
      <path d="M13.691,12.064 L13.691,14.005 L14.171,14.005 L14.171,12.981 C14.171,12.623 14.404,12.489 14.656,12.489 C14.813,12.489 14.904,12.532 15.002,12.615 L15.219,12.198 C15.112,12.091 14.919,12.013 14.719,12.013 C14.522,12.013 14.321,12.048 14.171,12.288 L14.136,12.064 z" fill="#FFFFFF"/>
      <path d="M15.4,11.253 L15.4,14.005 L15.876,14.005 L15.876,11.253 z" fill="#FFFFFF"/>
      <path d="M17.659,12.06 L17.238,13.521 L16.793,12.06 L16.258,12.06 L16.939,14.013 L17.498,14.013 L17.699,13.438 L17.872,12.788 L18.045,13.438 L18.246,14.013 L18.805,14.013 L19.482,12.06 L18.951,12.06 L18.506,13.521 L18.081,12.06 z" fill="#FFFFFF"/>
      <path d="M20.368,12.056 L20.368,14.005 L19.888,14.005 L19.888,12.056 z M19.844,11.517 C19.844,11.143 20.411,11.143 20.411,11.517 C20.411,11.891 19.844,11.891 19.844,11.517 z" fill="#FFFFFF"/>
      <path d="M22.71,14.005 L22.71,12.985 C22.71,12.375 22.344,12.032 21.888,12.032 C21.644,12.032 21.447,12.131 21.25,12.324 L21.218,12.06 L20.789,12.06 L20.789,14.005 L21.266,14.005 L21.266,13.013 C21.266,12.717 21.466,12.469 21.762,12.469 C22.069,12.469 22.23,12.694 22.23,12.989 L22.23,14.005 z" fill="#FFFFFF"/>
      <path d="M24.065,12.465 C24.368,12.465 24.628,12.694 24.628,13.032 C24.628,13.383 24.368,13.603 24.065,13.603 C23.758,13.603 23.514,13.371 23.514,13.032 C23.514,12.682 23.758,12.465 24.065,12.465 z M24.659,11.253 L24.659,12.328 C24.545,12.127 24.226,12.017 24.021,12.017 C23.455,12.017 23.033,12.363 23.033,13.032 C23.033,13.67 23.462,14.048 24.033,14.048 C24.269,14.048 24.51,13.969 24.659,13.737 L24.691,14.005 L25.139,14.005 L25.139,11.253 z" fill="#FFFFFF"/>
    </g>
  </g>
</svg>
