<?xml version="1.0" encoding="UTF-8"?>
<!DOCTYPE svg PUBLIC "-//W3C//DTD SVG 1.1//EN" "http://www.w3.org/Graphics/SVG/1.1/DTD/svg11.dtd">
<svg version="1.1" xmlns="http://www.w3.org/2000/svg" xmlns:xlink="http://www.w3.org/1999/xlink" x="0" y="0" width="128" height="128" viewBox="0, 0, 128, 128">
  <defs>
    <linearGradient id="Gradient_1" gradientUnits="userSpaceOnUse" x1="45" y1="0.382" x2="45" y2="93" gradientTransform="matrix(1, 0, 0, 1, 19, 11)">
      <stop offset="0" stop-color="#2196F3"/>
      <stop offset="1" stop-color="#1565C0"/>
    </linearGradient>
  </defs>
  <g id="Page-1">
    <path d="M19,14.996 C19,12.789 20.798,11 22.998,11 L105.002,11 C107.21,11 109,12.795 109,14.996 L109,104 L19,104 L19,14.996 z" fill="url(#Gradient_1)" id="Rectangle-1"/>
    <path d="M81,29 L64,32 L64,47 L81,47 L81,29 z M46,34.416 L46,47 L59,47 L59,32.5 L46,34.416 z M64,51 L64,65.5 L81,69 L81,51 L64,51 z M46,51 L46,62.74 L59,64.5 L59,51 L46,51 z" fill="#FFFFFF" id="Page-1"/>
    <path d="M19,94.996 C19,92.789 20.798,91 22.998,91 L105.002,91 C107.21,91 109,92.793 109,94.992 L109,106.5 L19,107 L19,94.996 z" fill="#FFFFFF" id="Rectangle-3"/>
    <path d="M19,104.996 C19,102.789 20.798,101 22.998,101 L105.002,101 C107.21,101 109,102.789 109,104.996 L109,113.004 C109,115.211 107.202,117 105.002,117 L22.998,117 C20.79,117 19,115.211 19,113.004 L19,104.996 z" fill="#DCDDDD" id="Rectangle-1"/>
    <path d="M72,106 L75,106.021 L75,112 L72.038,112 L72.038,106.021 L72,106 z M77,106 L80,106.021 L80,112 L77.038,112 L77.038,106.021 L77,106 z M82,106 L85,106.021 L85,112 L82.038,112 L82.038,106.021 L82,106 z M87,106 L90,106.021 L90,112 L87.038,112 L87.038,106.021 L87,106 z M92,106 L95,106.021 L95,112 L92.038,112 L92.038,106.021 L92,106 z M97,106 L100,106.021 L100,112 L97.038,112 L97.038,106.021 L97,106 z" fill="#1565C0" id="Combined-Shape"/>
    <path d="M31,112 C32.657,112 34,110.657 34,109 C34,107.343 32.657,106 31,106 C29.343,106 28,107.343 28,109 C28,110.657 29.343,112 31,112 z" fill="#1565C0" id="Oval"/>
  </g>
</svg>
