<?xml version="1.0" encoding="UTF-8"?>
<!DOCTYPE svg PUBLIC "-//W3C//DTD SVG 1.1//EN" "http://www.w3.org/Graphics/SVG/1.1/DTD/svg11.dtd">
<svg version="1.1" xmlns="http://www.w3.org/2000/svg" xmlns:xlink="http://www.w3.org/1999/xlink" x="0" y="0" width="32" height="32" viewBox="0, 0, 32, 32">
  <defs>
    <linearGradient id="Gradient_1" gradientUnits="userSpaceOnUse" x1="11" y1="0.094" x2="11" y2="23" gradientTransform="matrix(1, 0, 0, 1, 5, 3)">
      <stop offset="0" stop-color="#9DDA00"/>
      <stop offset="1" stop-color="#73C300"/>
    </linearGradient>
  </defs>
  <g id="Page-1">
    <path d="M5,4.003 C5,3.449 5.439,3 6.002,3 L25.998,3 C26.551,3 27,3.439 27,4.003 L27,26 L5,26 L5,4.003 z" fill="url(#Gradient_1)" id="Rectangle-1"/>
    <path d="M5,23.009 C5,22.452 5.439,22 6.002,22 L25.998,22 C26.551,22 27,22.443 27,23.009 L27,26 L14.11,26 L5,26 L5,23.009 z" fill="#FFFFFF" id="Rectangle-3"/>
    <path d="M5,26.009 C5,25.452 5.439,25 6.002,25 L25.998,25 C26.551,25 27,25.443 27,26.009 L27,27.991 C27,28.548 26.561,29 25.998,29 L6.002,29 C5.449,29 5,28.557 5,27.991 L5,26.009 z" fill="#DCDDDD" id="Rectangle-1"/>
    <path d="M24,26 L25,26 L25,28 L24,28 L24,26 z M22,26 L23,26 L23,28 L22,28 L22,26 z M20,26 L21,26 L21,28 L20,28 L20,26 z M18,26 L19,26 L19,28 L18,28 L18,26 z" fill="#75C500" id="Combined-Shape"/>
    <path d="M8,28 C8.552,28 9,27.552 9,27 C9,26.448 8.552,26 8,26 C7.448,26 7,26.448 7,27 C7,27.552 7.448,28 8,28 z" fill="#75C600" id="Oval"/>
    <g>
      <path d="M8.263,12.06 L7.841,13.52 L7.396,12.06 L6.861,12.06 L7.542,14.012 L8.101,14.012 L8.302,13.438 L8.475,12.788 L8.648,13.438 L8.849,14.012 L9.408,14.012 L10.085,12.06 L9.554,12.06 L9.109,13.52 L8.684,12.06 z" fill="#FFFFFF"/>
      <path d="M10.491,11.249 L10.491,14.005 L10.971,14.005 L10.971,13.013 C10.971,12.721 11.168,12.481 11.451,12.481 C11.707,12.481 11.892,12.631 11.892,12.985 L11.892,14.005 L12.373,14.005 L12.373,12.981 C12.373,12.41 12.129,12.036 11.577,12.036 C11.357,12.036 11.144,12.103 10.971,12.328 L10.971,11.249 z" fill="#FFFFFF"/>
      <path d="M13.258,12.056 L13.258,14.005 L12.778,14.005 L12.778,12.056 z M12.735,11.517 C12.735,11.142 13.302,11.142 13.302,11.517 C13.302,11.891 12.735,11.891 12.735,11.517 z" fill="#FFFFFF"/>
      <path d="M13.692,12.064 L13.692,14.005 L14.172,14.005 L14.172,12.981 C14.172,12.623 14.404,12.489 14.656,12.489 C14.814,12.489 14.904,12.532 15.002,12.615 L15.219,12.198 C15.113,12.091 14.92,12.013 14.719,12.013 C14.522,12.013 14.321,12.048 14.172,12.288 L14.136,12.064 z" fill="#FFFFFF"/>
      <path d="M15.4,11.253 L15.4,14.005 L15.876,14.005 L15.876,11.253 z" fill="#FFFFFF"/>
      <path d="M17.66,12.06 L17.239,13.52 L16.794,12.06 L16.258,12.06 L16.939,14.012 L17.498,14.012 L17.699,13.438 L17.872,12.788 L18.046,13.438 L18.246,14.012 L18.806,14.012 L19.483,12.06 L18.951,12.06 L18.506,13.52 L18.081,12.06 z" fill="#FFFFFF"/>
      <path d="M20.368,12.056 L20.368,14.005 L19.888,14.005 L19.888,12.056 z M19.845,11.517 C19.845,11.142 20.412,11.142 20.412,11.517 C20.412,11.891 19.845,11.891 19.845,11.517 z" fill="#FFFFFF"/>
      <path d="M22.711,14.005 L22.711,12.985 C22.711,12.375 22.345,12.032 21.888,12.032 C21.644,12.032 21.447,12.131 21.25,12.324 L21.219,12.06 L20.79,12.06 L20.79,14.005 L21.266,14.005 L21.266,13.013 C21.266,12.717 21.467,12.469 21.762,12.469 C22.069,12.469 22.231,12.694 22.231,12.989 L22.231,14.005 z" fill="#FFFFFF"/>
      <path d="M24.065,12.465 C24.368,12.465 24.628,12.694 24.628,13.032 C24.628,13.383 24.368,13.603 24.065,13.603 C23.758,13.603 23.514,13.371 23.514,13.032 C23.514,12.682 23.758,12.465 24.065,12.465 z M24.66,11.253 L24.66,12.328 C24.546,12.127 24.227,12.016 24.022,12.016 C23.455,12.016 23.034,12.363 23.034,13.032 C23.034,13.67 23.463,14.048 24.034,14.048 C24.27,14.048 24.51,13.969 24.66,13.737 L24.691,14.005 L25.14,14.005 L25.14,11.253 z" fill="#FFFFFF"/>
    </g>
  </g>
</svg>
