<?xml version="1.0" encoding="UTF-8"?>
<!DOCTYPE svg PUBLIC "-//W3C//DTD SVG 1.1//EN" "http://www.w3.org/Graphics/SVG/1.1/DTD/svg11.dtd">
<svg version="1.1" xmlns="http://www.w3.org/2000/svg" xmlns:xlink="http://www.w3.org/1999/xlink" x="0" y="0" width="32" height="32" viewBox="0, 0, 32, 32">
  <defs>
    <linearGradient id="Gradient_1" gradientUnits="userSpaceOnUse" x1="11" y1="0.094" x2="11" y2="23" gradientTransform="matrix(1, 0, 0, 1, 5, 3)">
      <stop offset="0" stop-color="#9E9E9E"/>
      <stop offset="1" stop-color="#424242"/>
    </linearGradient>
  </defs>
  <g id="Page-1">
    <path d="M5,4.003 C5,3.449 5.439,3 6.002,3 L25.998,3 C26.551,3 27,3.439 27,4.003 L27,26 L5,26 L5,4.003 z" fill="url(#Gradient_1)" id="Rectangle-1"/>
    <path d="M21.45,14.525 C21.164,15.158 21.027,15.441 20.66,16 C20.147,16.781 19.424,17.754 18.528,17.762 C17.731,17.77 17.527,17.244 16.447,17.25 C15.366,17.256 15.14,17.771 14.344,17.764 C13.448,17.756 12.762,16.878 12.25,16.096 C10.814,13.912 10.664,11.349 11.549,9.986 C12.179,9.018 13.17,8.451 14.103,8.451 C15.053,8.451 15.65,8.972 16.435,8.972 C17.197,8.972 17.661,8.45 18.759,8.45 C19.589,8.45 20.468,8.902 21.095,9.684 C19.042,10.809 19.376,13.741 21.45,14.525 L21.45,14.525 z M17.926,7.578 C18.325,7.066 18.628,6.342 18.518,5.603 C17.866,5.648 17.104,6.063 16.659,6.604 C16.255,7.094 15.921,7.822 16.052,8.529 C16.763,8.551 17.499,8.126 17.926,7.578 L17.926,7.578 z" fill="#FFFFFF" id="Combined-Shape"/>
    <path d="M5,23.009 C5,22.452 5.439,22 6.002,22 L25.998,22 C26.551,22 27,22.443 27,23.009 L27,26 L14.11,26 L5,26 L5,23.009 z" fill="#FFFFFF" id="Rectangle-3"/>
    <path d="M5,26.009 C5,25.452 5.439,25 6.002,25 L25.998,25 C26.551,25 27,25.443 27,26.009 L27,27.991 C27,28.548 26.561,29 25.998,29 L6.002,29 C5.449,29 5,28.557 5,27.991 L5,26.009 z" fill="#DCDDDD" id="Rectangle-1"/>
    <path d="M24,26 L25,26 L25,28 L24,28 L24,26 z M22,26 L23,26 L23,28 L22,28 L22,26 z M20,26 L21,26 L21,28 L20,28 L20,26 z M18,26 L19,26 L19,28 L18,28 L18,26 z" fill="#424242" id="Combined-Shape"/>
    <path d="M8,28 C8.552,28 9,27.552 9,27 C9,26.448 8.552,26 8,26 C7.448,26 7,26.448 7,27 C7,27.552 7.448,28 8,28 z" fill="#424242" id="Oval"/>
  </g>
</svg>
