<?xml version="1.0" encoding="UTF-8"?>
<!DOCTYPE svg PUBLIC "-//W3C//DTD SVG 1.1//EN" "http://www.w3.org/Graphics/SVG/1.1/DTD/svg11.dtd">
<svg version="1.1" xmlns="http://www.w3.org/2000/svg" xmlns:xlink="http://www.w3.org/1999/xlink" x="0" y="0" width="32" height="32" viewBox="0, 0, 32, 32">
  <defs>
    <linearGradient id="Gradient_1" gradientUnits="userSpaceOnUse" x1="11" y1="0.094" x2="11" y2="23" gradientTransform="matrix(1, 0, 0, 1, 5, 3)">
      <stop offset="0" stop-color="#2196F3"/>
      <stop offset="1" stop-color="#1565C0"/>
    </linearGradient>
  </defs>
  <g id="Page-1">
    <path d="M5,4.003 C5,3.449 5.439,3 6.002,3 L25.998,3 C26.551,3 27,3.439 27,4.003 L27,26 L5,26 L5,4.003 z" fill="url(#Gradient_1)" id="Rectangle-1"/>
    <path d="M20.987,6 L16,6.838 L16,11 L20.987,11 L20.987,6 z M11,7.497 L11,11 L15,11 L15,7 L11,7.497 z M16,12 L16,16.022 L21,17 L21,12 L16,12 z M11,12 L11,15.279 L15,16 L15,12 L11,12 z" fill="#FFFFFF" id="Page-1"/>
    <path d="M5,23.009 C5,22.452 5.439,22 6.002,22 L25.998,22 C26.551,22 27,22.443 27,23.009 L27,26 L14.11,26 L5,26 L5,23.009 z" fill="#FFFFFF" id="Rectangle-3"/>
    <path d="M5,26.009 C5,25.452 5.439,25 6.002,25 L25.998,25 C26.551,25 27,25.443 27,26.009 L27,27.991 C27,28.548 26.561,29 25.998,29 L6.002,29 C5.449,29 5,28.557 5,27.991 L5,26.009 z" fill="#DCDDDD" id="Rectangle-1"/>
    <path d="M24,26 L25,26 L25,28 L24,28 L24,26 z M22,26 L23,26 L23,28 L22,28 L22,26 z M20,26 L21,26 L21,28 L20,28 L20,26 z M18,26 L19,26 L19,28 L18,28 L18,26 z" fill="#1565C0" id="Combined-Shape"/>
    <path d="M8,28 C8.552,28 9,27.552 9,27 C9,26.448 8.552,26 8,26 C7.448,26 7,26.448 7,27 C7,27.552 7.448,28 8,28 z" fill="#1565C0" id="Oval"/>
  </g>
</svg>
