<?xml version="1.0" encoding="UTF-8"?>
<!DOCTYPE svg PUBLIC "-//W3C//DTD SVG 1.1//EN" "http://www.w3.org/Graphics/SVG/1.1/DTD/svg11.dtd">
<svg version="1.1" xmlns="http://www.w3.org/2000/svg" xmlns:xlink="http://www.w3.org/1999/xlink" x="0" y="0" width="128" height="128" viewBox="0, 0, 128, 128">
  <defs>
    <linearGradient id="Gradient_1" gradientUnits="userSpaceOnUse" x1="45" y1="0.382" x2="45" y2="85.93" gradientTransform="matrix(1, 0, 0, 1, 19, 11)">
      <stop offset="0" stop-color="#FF9023"/>
      <stop offset="1" stop-color="#F9731D"/>
    </linearGradient>
  </defs>
  <g id="Page-1">
    <path d="M19,14.996 C19,12.789 20.798,11 22.998,11 L105.002,11 C107.21,11 109,12.795 109,14.996 L109,104 L19,104 L19,14.996 z" fill="url(#Gradient_1)" id="Rectangle-1"/>
    <path d="M19,94.996 C19,92.789 20.798,91 22.998,91 L105.002,91 C107.21,91 109,92.793 109,94.992 L109,106.5 L19,107 L19,94.996 z" fill="#FFFFFF" id="Rectangle-3"/>
    <path d="M19,104.996 C19,102.789 20.798,101 22.998,101 L105.002,101 C107.21,101 109,102.789 109,104.996 L109,113.004 C109,115.211 107.202,117 105.002,117 L22.998,117 C20.79,117 19,115.211 19,113.004 L19,104.996 z" fill="#DCDDDD" id="Rectangle-1"/>
    <path d="M72,106 L75,106.021 L75,112 L72.038,112 L72.038,106.021 L72,106 z M77,106 L80,106.021 L80,112 L77.038,112 L77.038,106.021 L77,106 z M82,106 L85,106.021 L85,112 L82.038,112 L82.038,106.021 L82,106 z M87,106 L90,106.021 L90,112 L87.038,112 L87.038,106.021 L87,106 z M92,106 L95,106.021 L95,112 L92.038,112 L92.038,106.021 L92,106 z M97,106 L100,106.021 L100,112 L97.038,112 L97.038,106.021 L97,106 z" fill="#F8731D" id="Combined-Shape"/>
    <path d="M31,112 C32.657,112 34,110.657 34,109 C34,107.343 32.657,106 31,106 C29.343,106 28,107.343 28,109 C28,110.657 29.343,112 31,112 z" fill="#F8731D" id="Oval"/>
    <g>
      <path d="M32.305,47.615 L30.58,53.597 L28.758,47.615 L26.565,47.615 L29.354,55.613 L31.644,55.613 L32.467,53.258 L33.176,50.598 L33.886,53.258 L34.708,55.613 L36.998,55.613 L39.771,47.615 L37.594,47.615 L35.772,53.597 L34.031,47.615 z" fill="#FFFFFF"/>
      <path d="M41.432,44.293 L41.432,55.581 L43.4,55.581 L43.4,51.517 C43.4,50.324 44.206,49.34 45.367,49.34 C46.415,49.34 47.173,49.953 47.173,51.404 L47.173,55.581 L49.14,55.581 L49.14,51.388 C49.14,49.05 48.141,47.518 45.883,47.518 C44.98,47.518 44.109,47.792 43.4,48.711 L43.4,44.293 z" fill="#FFFFFF"/>
      <path d="M52.769,47.598 L52.769,55.581 L50.801,55.581 L50.801,47.598 z M50.624,45.389 C50.624,43.857 52.946,43.857 52.946,45.389 C52.946,46.921 50.624,46.921 50.624,45.389 z" fill="#FFFFFF"/>
      <path d="M54.542,47.631 L54.542,55.581 L56.51,55.581 L56.51,51.388 C56.51,49.92 57.461,49.372 58.493,49.372 C59.138,49.372 59.509,49.55 59.912,49.888 L60.799,48.179 C60.364,47.744 59.574,47.421 58.751,47.421 C57.945,47.421 57.122,47.566 56.51,48.55 L56.365,47.631 z" fill="#FFFFFF"/>
      <path d="M61.541,44.309 L61.541,55.581 L63.492,55.581 L63.492,44.309 z" fill="#FFFFFF"/>
      <path d="M70.797,47.615 L69.071,53.597 L67.249,47.615 L65.056,47.615 L67.846,55.613 L70.136,55.613 L70.958,53.258 L71.668,50.598 L72.377,53.258 L73.2,55.613 L75.489,55.613 L78.263,47.615 L76.086,47.615 L74.264,53.597 L72.522,47.615 z" fill="#FFFFFF"/>
      <path d="M81.891,47.598 L81.891,55.581 L79.924,55.581 L79.924,47.598 z M79.747,45.389 C79.747,43.857 82.069,43.857 82.069,45.389 C82.069,46.921 79.747,46.921 79.747,45.389 z" fill="#FFFFFF"/>
      <path d="M91.486,55.581 L91.486,51.404 C91.486,48.905 89.986,47.502 88.116,47.502 C87.116,47.502 86.31,47.905 85.503,48.695 L85.374,47.615 L83.617,47.615 L83.617,55.581 L85.568,55.581 L85.568,51.517 C85.568,50.308 86.39,49.292 87.6,49.292 C88.858,49.292 89.519,50.211 89.519,51.42 L89.519,55.581 z" fill="#FFFFFF"/>
      <path d="M97.033,49.275 C98.275,49.275 99.339,50.211 99.339,51.598 C99.339,53.033 98.275,53.936 97.033,53.936 C95.775,53.936 94.776,52.984 94.776,51.598 C94.776,50.162 95.775,49.275 97.033,49.275 z M99.468,44.309 L99.468,48.711 C99,47.889 97.694,47.437 96.856,47.437 C94.534,47.437 92.808,48.856 92.808,51.598 C92.808,54.21 94.566,55.758 96.904,55.758 C97.872,55.758 98.855,55.435 99.468,54.484 L99.597,55.581 L101.435,55.581 L101.435,44.309 z" fill="#FFFFFF"/>
    </g>
  </g>
</svg>
