<?xml version="1.0" encoding="UTF-8"?>
<!DOCTYPE svg PUBLIC "-//W3C//DTD SVG 1.1//EN" "http://www.w3.org/Graphics/SVG/1.1/DTD/svg11.dtd">
<svg version="1.1" xmlns="http://www.w3.org/2000/svg" xmlns:xlink="http://www.w3.org/1999/xlink" x="0" y="0" width="128" height="128" viewBox="0, 0, 128, 128">
  <defs>
    <linearGradient id="Gradient_1" gradientUnits="userSpaceOnUse" x1="45" y1="0.382" x2="45" y2="93" gradientTransform="matrix(1, 0, 0, 1, 19, 11)">
      <stop offset="0" stop-color="#FFEB3B"/>
      <stop offset="1" stop-color="#FFD600"/>
    </linearGradient>
  </defs>
  <g id="Page-1">
    <path d="M19,14.996 C19,12.789 20.798,11 22.998,11 L105.002,11 C107.21,11 109,12.795 109,14.996 L109,104 L19,104 L19,14.996 z" fill="url(#Gradient_1)" id="Rectangle-1"/>
    <path d="M76.128,55.238 C76.128,54.939 75.67,54.589 74.755,54.19 C74.821,53.94 74.884,53.711 74.942,53.503 C75,53.295 75.042,53.079 75.067,52.854 C75.092,52.629 75.117,52.45 75.142,52.317 C75.167,52.184 75.171,51.997 75.154,51.755 C75.138,51.514 75.129,51.352 75.129,51.268 C75.129,51.185 75.1,51.002 75.042,50.719 C74.984,50.436 74.95,50.265 74.942,50.207 C74.934,50.149 74.892,49.941 74.817,49.583 C74.742,49.225 74.697,49.005 74.68,48.921 C74.514,48.122 74.122,47.265 73.506,46.35 C72.891,45.434 72.291,44.81 71.709,44.477 C72.108,44.81 72.583,45.501 73.132,46.549 C74.58,49.246 75.03,51.56 74.48,53.491 C74.297,54.156 73.881,54.506 73.232,54.539 C72.716,54.606 72.395,54.452 72.271,54.077 C72.146,53.703 72.079,53.008 72.071,51.992 C72.062,50.977 71.967,50.086 71.784,49.321 C71.634,48.672 71.472,48.097 71.297,47.598 C71.122,47.099 70.96,46.72 70.81,46.462 C70.66,46.204 70.531,46 70.423,45.85 C70.315,45.7 70.206,45.576 70.098,45.476 C69.99,45.376 69.928,45.318 69.911,45.301 C69.678,44.269 69.42,43.412 69.137,42.729 C68.854,42.047 68.609,41.581 68.4,41.331 C68.192,41.081 67.997,40.807 67.814,40.507 C67.631,40.207 67.506,39.874 67.439,39.508 C67.373,39.159 67.423,38.713 67.589,38.172 C67.755,37.631 67.793,37.219 67.701,36.936 C67.61,36.654 67.239,36.445 66.59,36.312 C66.341,36.262 65.97,36.113 65.479,35.863 C64.988,35.613 64.693,35.48 64.593,35.463 C64.46,35.447 64.368,35.23 64.318,34.814 C64.268,34.398 64.335,33.974 64.518,33.541 C64.701,33.108 65.001,32.883 65.417,32.867 C66.033,32.817 66.457,33.066 66.69,33.616 C66.923,34.165 66.956,34.648 66.79,35.064 C66.607,35.38 66.59,35.601 66.74,35.726 C66.89,35.85 67.14,35.855 67.489,35.738 C67.705,35.671 67.814,35.372 67.814,34.839 L67.814,33.915 C67.73,33.416 67.618,33 67.477,32.667 C67.335,32.334 67.16,32.08 66.952,31.905 C66.744,31.731 66.549,31.606 66.366,31.531 C66.182,31.456 65.958,31.394 65.691,31.344 C63.91,31.477 63.17,32.592 63.469,34.689 C63.469,34.939 63.461,35.064 63.444,35.064 C63.294,34.914 63.049,34.827 62.708,34.802 C62.366,34.777 62.092,34.781 61.884,34.814 C61.676,34.847 61.547,34.806 61.497,34.689 C61.513,33.741 61.38,32.991 61.097,32.442 C60.814,31.893 60.44,31.61 59.974,31.593 C59.524,31.577 59.179,31.805 58.937,32.28 C58.696,32.754 58.559,33.249 58.525,33.766 C58.509,34.015 58.538,34.323 58.613,34.689 C58.688,35.056 58.796,35.368 58.937,35.626 C59.079,35.884 59.208,35.996 59.324,35.963 C59.491,35.913 59.624,35.796 59.724,35.613 C59.791,35.463 59.732,35.397 59.549,35.413 C59.433,35.413 59.304,35.293 59.162,35.051 C59.021,34.81 58.942,34.531 58.925,34.215 C58.908,33.849 58.983,33.541 59.15,33.291 C59.316,33.041 59.599,32.925 59.999,32.942 C60.282,32.942 60.506,33.116 60.673,33.466 C60.839,33.815 60.918,34.14 60.91,34.44 C60.902,34.739 60.889,34.922 60.872,34.989 C60.506,35.239 60.248,35.48 60.098,35.713 C59.965,35.913 59.736,36.108 59.412,36.3 C59.087,36.491 58.917,36.595 58.9,36.612 C58.684,36.845 58.555,37.07 58.513,37.286 C58.471,37.502 58.534,37.652 58.7,37.735 C58.933,37.869 59.141,38.031 59.324,38.222 C59.508,38.414 59.641,38.572 59.724,38.697 C59.807,38.822 59.961,38.93 60.186,39.021 C60.411,39.113 60.706,39.167 61.072,39.184 C61.855,39.217 62.703,39.092 63.619,38.809 C63.652,38.792 63.844,38.734 64.193,38.634 C64.543,38.534 64.83,38.447 65.055,38.372 C65.279,38.297 65.525,38.189 65.791,38.048 C66.058,37.906 66.232,37.76 66.316,37.611 C66.465,37.378 66.632,37.311 66.815,37.411 C66.898,37.461 66.952,37.532 66.977,37.623 C67.002,37.715 66.977,37.815 66.902,37.923 C66.827,38.031 66.69,38.11 66.49,38.16 C66.157,38.26 65.687,38.439 65.08,38.697 C64.472,38.955 64.093,39.117 63.944,39.184 C63.211,39.5 62.629,39.691 62.196,39.758 C61.78,39.841 61.122,39.824 60.223,39.708 C60.057,39.675 59.982,39.691 59.999,39.758 C60.015,39.824 60.157,39.983 60.423,40.232 C60.839,40.615 61.397,40.798 62.096,40.782 C62.379,40.765 62.679,40.707 62.995,40.607 C63.311,40.507 63.611,40.39 63.894,40.257 C64.177,40.124 64.455,39.978 64.73,39.82 C65.005,39.662 65.254,39.521 65.479,39.396 C65.704,39.271 65.908,39.171 66.091,39.096 C66.274,39.021 66.42,39.001 66.528,39.034 C66.636,39.067 66.707,39.159 66.74,39.308 C66.74,39.342 66.732,39.379 66.715,39.421 C66.698,39.462 66.665,39.504 66.615,39.546 C66.565,39.587 66.515,39.625 66.465,39.658 C66.415,39.691 66.345,39.733 66.253,39.783 C66.162,39.833 66.087,39.87 66.028,39.895 C65.97,39.92 65.887,39.962 65.779,40.02 C65.671,40.078 65.591,40.116 65.542,40.132 C65.075,40.365 64.514,40.732 63.856,41.231 C63.199,41.73 62.645,42.088 62.196,42.305 C61.746,42.521 61.339,42.529 60.972,42.33 C60.623,42.147 60.098,41.539 59.399,40.507 C59.033,39.991 58.825,39.808 58.775,39.958 C58.758,40.008 58.75,40.091 58.75,40.207 C58.75,40.623 58.625,41.094 58.376,41.618 C58.126,42.142 57.88,42.604 57.639,43.004 C57.398,43.403 57.223,43.886 57.115,44.452 C57.007,45.018 57.102,45.542 57.402,46.025 C57.019,46.125 56.499,46.874 55.841,48.272 C55.184,49.67 54.789,50.844 54.655,51.793 C54.622,52.092 54.61,52.667 54.618,53.515 C54.626,54.364 54.58,54.855 54.481,54.989 C54.347,55.388 54.106,55.413 53.756,55.064 C53.224,54.548 52.924,53.765 52.858,52.716 C52.824,52.25 52.858,51.784 52.958,51.318 C53.024,51.002 53.016,50.852 52.933,50.869 L52.833,50.994 C52.233,52.076 52.317,53.457 53.082,55.138 C53.166,55.338 53.374,55.571 53.707,55.838 C54.039,56.104 54.239,56.27 54.306,56.337 C54.639,56.72 55.504,57.473 56.903,58.597 C58.301,59.72 59.075,60.357 59.225,60.507 C59.491,60.756 59.637,61.073 59.662,61.455 C59.686,61.838 59.57,62.196 59.312,62.529 C59.054,62.862 58.675,63.053 58.176,63.103 C58.309,63.353 58.55,63.723 58.9,64.214 C59.25,64.705 59.483,65.155 59.599,65.563 C59.716,65.971 59.774,66.557 59.774,67.323 C60.54,66.923 60.598,66.158 59.949,65.026 C59.882,64.893 59.795,64.76 59.686,64.626 C59.578,64.493 59.499,64.393 59.449,64.327 C59.399,64.26 59.383,64.21 59.399,64.177 C59.449,64.094 59.557,64.015 59.724,63.94 C59.89,63.865 60.057,63.886 60.223,64.002 C60.989,64.868 62.371,65.167 64.368,64.901 C66.582,64.651 68.055,63.927 68.787,62.729 C69.17,62.096 69.453,61.847 69.636,61.98 C69.836,62.08 69.919,62.512 69.886,63.278 C69.869,63.694 69.678,64.46 69.312,65.575 C69.162,65.958 69.112,66.27 69.162,66.512 C69.212,66.753 69.412,66.882 69.761,66.899 C69.811,66.582 69.932,65.941 70.123,64.976 C70.315,64.011 70.427,63.261 70.46,62.729 C70.494,62.379 70.44,61.768 70.298,60.894 C70.157,60.02 70.094,59.212 70.111,58.472 C70.127,57.731 70.319,57.144 70.685,56.711 C70.935,56.412 71.359,56.262 71.958,56.262 C71.975,55.646 72.262,55.205 72.82,54.939 C73.377,54.672 73.981,54.585 74.63,54.677 C75.279,54.768 75.779,54.955 76.128,55.238 L76.128,55.238 z M60.448,34.589 C60.498,34.306 60.477,34.057 60.386,33.84 C60.294,33.624 60.198,33.499 60.098,33.466 C59.949,33.433 59.874,33.491 59.874,33.641 C59.907,33.724 59.949,33.774 59.999,33.79 C60.165,33.79 60.223,33.915 60.173,34.165 C60.123,34.498 60.19,34.664 60.373,34.664 C60.423,34.664 60.448,34.639 60.448,34.589 L60.448,34.589 z M66.465,34.19 C66.465,34.007 66.424,33.845 66.341,33.703 C66.257,33.562 66.166,33.458 66.066,33.391 C65.966,33.324 65.891,33.299 65.841,33.316 C65.608,33.333 65.55,33.391 65.666,33.491 C65.7,33.507 65.733,33.524 65.766,33.541 C65.999,33.607 66.149,33.865 66.216,34.315 C66.216,34.365 66.282,34.348 66.415,34.265 L66.465,34.19 z M82.695,62.467 C82.878,62.675 82.978,62.874 82.994,63.066 C83.011,63.257 82.99,63.445 82.932,63.628 C82.874,63.811 82.745,63.994 82.545,64.177 C82.345,64.36 82.15,64.522 81.958,64.664 C81.767,64.805 81.517,64.959 81.209,65.126 C80.901,65.292 80.639,65.43 80.423,65.538 C80.206,65.646 79.94,65.775 79.624,65.925 C79.307,66.075 79.083,66.183 78.95,66.249 C78.317,66.566 77.605,67.032 76.815,67.648 C76.024,68.263 75.396,68.796 74.93,69.246 C74.647,69.512 74.081,69.674 73.232,69.732 C72.383,69.791 71.642,69.67 71.01,69.37 C70.71,69.221 70.464,69.025 70.273,68.784 C70.082,68.542 69.944,68.33 69.861,68.147 C69.778,67.964 69.595,67.802 69.312,67.66 C69.029,67.519 68.638,67.44 68.138,67.423 C67.406,67.406 66.324,67.398 64.892,67.398 C64.576,67.398 64.102,67.41 63.469,67.435 C62.837,67.46 62.354,67.481 62.021,67.498 C61.289,67.514 60.627,67.639 60.036,67.872 C59.445,68.105 59,68.355 58.7,68.621 C58.401,68.888 58.039,69.125 57.614,69.333 C57.19,69.541 56.744,69.637 56.278,69.62 C55.796,69.603 54.872,69.345 53.507,68.846 C52.142,68.347 50.927,67.989 49.861,67.772 C49.545,67.706 49.121,67.627 48.588,67.535 C48.055,67.444 47.639,67.369 47.34,67.311 C47.04,67.252 46.711,67.173 46.353,67.073 C45.995,66.973 45.717,66.853 45.517,66.711 C45.317,66.57 45.176,66.407 45.092,66.224 C44.926,65.842 44.984,65.288 45.267,64.564 C45.55,63.84 45.7,63.386 45.717,63.203 C45.733,62.937 45.7,62.604 45.617,62.204 C45.534,61.805 45.45,61.451 45.367,61.143 C45.284,60.835 45.246,60.532 45.255,60.232 C45.263,59.932 45.35,59.708 45.517,59.558 C45.75,59.358 46.224,59.242 46.94,59.208 C47.656,59.175 48.155,59.075 48.438,58.909 C48.938,58.609 49.287,58.318 49.487,58.035 C49.687,57.752 49.787,57.327 49.787,56.761 C49.787,57.236 50.228,56.012 50.161,55.613 C50.111,55.346 50.094,55.03 50.111,54.664 C50.128,54.181 50.211,53.749 50.361,53.366 C50.511,52.983 50.71,52.592 50.96,52.192 C51.21,51.793 51.393,51.443 51.509,51.143 C51.643,50.794 51.863,50.195 52.171,49.346 C52.479,48.497 52.724,47.848 52.908,47.398 C53.091,46.949 53.34,46.441 53.657,45.875 C53.973,45.309 54.297,44.86 54.63,44.527 C56.461,42.147 57.493,40.524 57.726,39.658 C57.527,37.794 57.394,35.214 57.327,31.918 C57.294,30.42 57.493,29.159 57.926,28.135 C58.359,27.111 59.241,26.242 60.573,25.526 C61.222,25.176 62.088,25.002 63.17,25.002 C64.052,24.985 64.934,25.097 65.816,25.339 C66.698,25.58 67.439,25.925 68.038,26.375 C68.987,27.074 69.749,28.085 70.323,29.409 C70.897,30.732 71.143,31.959 71.06,33.091 C70.976,34.673 71.226,36.454 71.809,38.435 C72.375,40.316 73.481,42.13 75.129,43.878 C76.045,44.86 76.873,46.216 77.614,47.948 C78.354,49.679 78.85,51.268 79.099,52.716 C79.233,53.532 79.274,54.235 79.224,54.826 C79.174,55.417 79.074,55.879 78.925,56.212 C78.775,56.545 79.141,57.885 79.374,57.685 C79.391,58.201 79.457,58.671 79.574,59.096 C79.69,59.52 79.811,59.857 79.936,60.107 C80.061,60.357 80.231,60.594 80.448,60.819 C80.664,61.043 80.839,61.202 80.972,61.293 C81.105,61.385 81.284,61.493 81.509,61.618 C81.734,61.743 81.871,61.822 81.921,61.855 C82.254,62.055 82.512,62.259 82.695,62.467 z" fill="#FFFFFF" id="Page-1"/>
    <path d="M19,94.996 C19,92.789 20.798,91 22.998,91 L105.002,91 C107.21,91 109,92.793 109,94.992 L109,106.5 L19,107 L19,94.996 z" fill="#FFFFFF" id="Rectangle-3"/>
    <path d="M19,104.996 C19,102.789 20.798,101 22.998,101 L105.002,101 C107.21,101 109,102.789 109,104.996 L109,113.004 C109,115.211 107.202,117 105.002,117 L22.998,117 C20.79,117 19,115.211 19,113.004 L19,104.996 z" fill="#DCDDDD" id="Rectangle-1"/>
    <path d="M72,106 L75,106.021 L75,112 L72.038,112 L72.038,106.021 L72,106 z M77,106 L80,106.021 L80,112 L77.038,112 L77.038,106.021 L77,106 z M82,106 L85,106.021 L85,112 L82.038,112 L82.038,106.021 L82,106 z M87,106 L90,106.021 L90,112 L87.038,112 L87.038,106.021 L87,106 z M92,106 L95,106.021 L95,112 L92.038,112 L92.038,106.021 L92,106 z M97,106 L100,106.021 L100,112 L97.038,112 L97.038,106.021 L97,106 z" fill="#FFD600" id="Combined-Shape"/>
    <path d="M31,112 C32.657,112 34,110.657 34,109 C34,107.343 32.657,106 31,106 C29.343,106 28,107.343 28,109 C28,110.657 29.343,112 31,112 z" fill="#FFD600" id="Oval"/>
  </g>
</svg>
