<?xml version="1.0" encoding="UTF-8"?>
<!DOCTYPE svg PUBLIC "-//W3C//DTD SVG 1.1//EN" "http://www.w3.org/Graphics/SVG/1.1/DTD/svg11.dtd">
<svg version="1.1" xmlns="http://www.w3.org/2000/svg" xmlns:xlink="http://www.w3.org/1999/xlink" x="0" y="0" width="32" height="32" viewBox="0, 0, 32, 32">
  <defs>
    <linearGradient id="Gradient_1" gradientUnits="userSpaceOnUse" x1="11" y1="0.094" x2="11" y2="23" gradientTransform="matrix(1, 0, 0, 1, 5, 3)">
      <stop offset="0" stop-color="#FFEB3B"/>
      <stop offset="1" stop-color="#FFD600"/>
    </linearGradient>
  </defs>
  <g id="Page-1">
    <g id="Group-2">
      <path d="M5,4.003 C5,3.449 5.439,3 6.002,3 L25.998,3 C26.551,3 27,3.439 27,4.003 L27,26 L5,26 L5,4.003 z" fill="url(#Gradient_1)" id="Rectangle-1"/>
      <path d="M5,23.009 C5,22.452 5.439,22 6.002,22 L25.998,22 C26.551,22 27,22.443 27,23.009 L27,26 L14.11,26 L5,26 L5,23.009 z" fill="#FFFFFF" id="Rectangle-3"/>
      <path d="M5,26.009 C5,25.452 5.439,25 6.002,25 L25.998,25 C26.551,25 27,25.443 27,26.009 L27,27.991 C27,28.548 26.561,29 25.998,29 L6.002,29 C5.449,29 5,28.557 5,27.991 L5,26.009 z" fill="#DCDDDD" id="Rectangle-1"/>
      <path d="M24,26 L25,26 L25,28 L24,28 L24,26 z M22,26 L23,26 L23,28 L22,28 L22,26 z M20,26 L21,26 L21,28 L20,28 L20,26 z M18,26 L19,26 L19,28 L18,28 L18,26 z" fill="#FFD600" id="Combined-Shape"/>
      <path d="M8,28 C8.552,28 9,27.552 9,27 C9,26.448 8.552,26 8,26 C7.448,26 7,26.448 7,27 C7,27.552 7.448,28 8,28 z" fill="#FFD600" id="Oval"/>
    </g>
    <path d="M19.436,14.254 C19.436,14.173 19.311,14.077 19.061,13.968 C19.079,13.9 19.096,13.838 19.112,13.781 C19.128,13.724 19.139,13.665 19.146,13.604 C19.153,13.542 19.16,13.493 19.166,13.457 C19.173,13.421 19.174,13.37 19.17,13.304 C19.165,13.238 19.163,13.194 19.163,13.171 C19.163,13.148 19.155,13.098 19.139,13.021 C19.123,12.944 19.114,12.897 19.112,12.881 C19.11,12.865 19.098,12.809 19.078,12.711 C19.057,12.613 19.045,12.553 19.04,12.53 C18.995,12.312 18.888,12.078 18.72,11.829 C18.552,11.579 18.389,11.408 18.23,11.318 C18.339,11.408 18.468,11.597 18.618,11.883 C19.013,12.619 19.136,13.25 18.986,13.777 C18.936,13.959 18.822,14.054 18.645,14.064 C18.504,14.082 18.417,14.04 18.383,13.937 C18.349,13.835 18.331,13.646 18.328,13.369 C18.326,13.091 18.3,12.848 18.25,12.639 C18.209,12.462 18.165,12.306 18.117,12.169 C18.069,12.033 18.025,11.93 17.984,11.859 C17.943,11.789 17.908,11.733 17.879,11.692 C17.849,11.651 17.82,11.617 17.79,11.59 C17.761,11.563 17.744,11.547 17.739,11.542 C17.675,11.261 17.605,11.027 17.528,10.841 C17.451,10.654 17.384,10.527 17.327,10.459 C17.27,10.391 17.217,10.316 17.167,10.234 C17.117,10.152 17.083,10.062 17.064,9.962 C17.046,9.866 17.06,9.745 17.105,9.597 C17.151,9.449 17.161,9.337 17.136,9.26 C17.111,9.183 17.01,9.126 16.833,9.09 C16.765,9.076 16.664,9.035 16.53,8.967 C16.396,8.899 16.315,8.862 16.288,8.858 C16.251,8.853 16.226,8.794 16.213,8.681 C16.199,8.567 16.217,8.451 16.267,8.333 C16.317,8.215 16.399,8.154 16.513,8.149 C16.681,8.136 16.796,8.204 16.86,8.354 C16.924,8.504 16.933,8.635 16.887,8.749 C16.837,8.835 16.833,8.895 16.874,8.929 C16.915,8.963 16.983,8.965 17.078,8.933 C17.137,8.915 17.167,8.833 17.167,8.687 L17.167,8.435 C17.144,8.299 17.113,8.186 17.075,8.095 C17.036,8.004 16.988,7.935 16.932,7.887 C16.875,7.839 16.821,7.805 16.771,7.785 C16.721,7.764 16.66,7.747 16.587,7.734 C16.101,7.77 15.899,8.074 15.981,8.647 C15.981,8.715 15.979,8.749 15.974,8.749 C15.933,8.708 15.866,8.684 15.773,8.677 C15.68,8.67 15.605,8.672 15.548,8.681 C15.492,8.69 15.456,8.678 15.443,8.647 C15.447,8.388 15.411,8.183 15.334,8.033 C15.257,7.883 15.154,7.806 15.027,7.802 C14.904,7.797 14.81,7.86 14.744,7.989 C14.679,8.119 14.641,8.254 14.632,8.395 C14.627,8.463 14.635,8.547 14.656,8.647 C14.676,8.747 14.706,8.832 14.744,8.902 C14.783,8.973 14.818,9.003 14.85,8.994 C14.895,8.98 14.932,8.949 14.959,8.899 C14.977,8.858 14.961,8.84 14.911,8.844 C14.88,8.844 14.844,8.811 14.806,8.745 C14.767,8.68 14.746,8.603 14.741,8.517 C14.736,8.417 14.757,8.333 14.802,8.265 C14.848,8.197 14.925,8.165 15.034,8.17 C15.111,8.17 15.172,8.217 15.218,8.313 C15.263,8.408 15.285,8.497 15.283,8.578 C15.28,8.66 15.277,8.71 15.272,8.728 C15.172,8.797 15.102,8.862 15.061,8.926 C15.025,8.98 14.962,9.034 14.874,9.086 C14.785,9.138 14.739,9.167 14.734,9.171 C14.675,9.235 14.64,9.296 14.629,9.355 C14.617,9.414 14.634,9.455 14.68,9.478 C14.743,9.514 14.8,9.559 14.85,9.611 C14.9,9.663 14.936,9.706 14.959,9.74 C14.982,9.774 15.024,9.804 15.085,9.829 C15.146,9.854 15.227,9.869 15.327,9.873 C15.54,9.882 15.772,9.848 16.022,9.771 C16.031,9.766 16.083,9.75 16.179,9.723 C16.274,9.696 16.352,9.672 16.414,9.652 C16.475,9.631 16.542,9.602 16.615,9.563 C16.687,9.524 16.735,9.485 16.758,9.444 C16.799,9.38 16.844,9.362 16.894,9.389 C16.917,9.403 16.932,9.422 16.938,9.447 C16.945,9.472 16.938,9.499 16.918,9.529 C16.898,9.559 16.86,9.58 16.806,9.594 C16.715,9.621 16.586,9.67 16.421,9.74 C16.255,9.811 16.151,9.855 16.111,9.873 C15.911,9.959 15.752,10.012 15.634,10.03 C15.52,10.053 15.341,10.048 15.095,10.016 C15.05,10.007 15.029,10.012 15.034,10.03 C15.038,10.048 15.077,10.091 15.15,10.159 C15.263,10.264 15.416,10.314 15.606,10.309 C15.684,10.305 15.765,10.289 15.852,10.261 C15.938,10.234 16.02,10.202 16.097,10.166 C16.174,10.13 16.25,10.09 16.325,10.047 C16.4,10.004 16.468,9.965 16.53,9.931 C16.591,9.897 16.647,9.87 16.697,9.849 C16.746,9.829 16.786,9.823 16.816,9.832 C16.845,9.841 16.865,9.866 16.874,9.907 C16.874,9.916 16.871,9.926 16.867,9.938 C16.862,9.949 16.853,9.961 16.84,9.972 C16.826,9.983 16.812,9.993 16.799,10.003 C16.785,10.012 16.766,10.023 16.741,10.037 C16.716,10.05 16.695,10.06 16.679,10.067 C16.664,10.074 16.641,10.085 16.611,10.101 C16.582,10.117 16.56,10.127 16.547,10.132 C16.419,10.196 16.266,10.296 16.087,10.432 C15.907,10.568 15.756,10.666 15.634,10.725 C15.511,10.784 15.4,10.786 15.3,10.732 C15.204,10.682 15.061,10.516 14.87,10.234 C14.77,10.093 14.714,10.043 14.7,10.084 C14.696,10.098 14.693,10.121 14.693,10.152 C14.693,10.266 14.659,10.394 14.591,10.537 C14.523,10.681 14.456,10.807 14.39,10.916 C14.324,11.025 14.276,11.156 14.247,11.311 C14.217,11.465 14.244,11.608 14.325,11.74 C14.221,11.767 14.079,11.972 13.899,12.353 C13.72,12.735 13.612,13.055 13.576,13.314 C13.567,13.396 13.563,13.552 13.566,13.784 C13.568,14.016 13.555,14.15 13.528,14.186 C13.492,14.295 13.426,14.302 13.331,14.207 C13.185,14.066 13.103,13.852 13.085,13.566 C13.076,13.439 13.085,13.312 13.112,13.185 C13.131,13.098 13.128,13.057 13.106,13.062 L13.078,13.096 C12.915,13.391 12.938,13.768 13.147,14.227 C13.169,14.282 13.226,14.345 13.317,14.418 C13.408,14.491 13.462,14.536 13.48,14.554 C13.571,14.659 13.807,14.864 14.189,15.171 C14.571,15.477 14.782,15.651 14.823,15.692 C14.895,15.76 14.935,15.846 14.942,15.951 C14.949,16.055 14.917,16.153 14.847,16.244 C14.776,16.335 14.673,16.387 14.537,16.401 C14.573,16.469 14.639,16.57 14.734,16.704 C14.83,16.838 14.893,16.961 14.925,17.072 C14.957,17.183 14.973,17.343 14.973,17.552 C15.182,17.443 15.197,17.234 15.02,16.925 C15.002,16.889 14.978,16.853 14.949,16.816 C14.919,16.78 14.898,16.753 14.884,16.735 C14.87,16.716 14.866,16.703 14.87,16.694 C14.884,16.671 14.914,16.649 14.959,16.629 C15.004,16.608 15.05,16.614 15.095,16.646 C15.304,16.882 15.681,16.964 16.226,16.891 C16.831,16.823 17.233,16.625 17.432,16.298 C17.537,16.126 17.614,16.058 17.664,16.094 C17.719,16.121 17.741,16.239 17.732,16.448 C17.728,16.562 17.675,16.771 17.575,17.075 C17.535,17.18 17.521,17.265 17.535,17.331 C17.548,17.397 17.603,17.432 17.698,17.436 C17.712,17.35 17.745,17.175 17.797,16.912 C17.849,16.648 17.88,16.444 17.889,16.298 C17.898,16.203 17.883,16.036 17.845,15.798 C17.806,15.559 17.789,15.339 17.794,15.137 C17.798,14.935 17.85,14.774 17.95,14.656 C18.018,14.575 18.134,14.534 18.298,14.534 C18.302,14.366 18.381,14.245 18.533,14.173 C18.685,14.1 18.85,14.076 19.027,14.101 C19.204,14.126 19.34,14.177 19.436,14.254 L19.436,14.254 z M15.157,8.619 C15.17,8.542 15.165,8.474 15.14,8.415 C15.115,8.356 15.088,8.322 15.061,8.313 C15.02,8.304 15,8.32 15,8.36 C15.009,8.383 15.02,8.397 15.034,8.401 C15.079,8.401 15.095,8.435 15.082,8.504 C15.068,8.594 15.086,8.64 15.136,8.64 C15.15,8.64 15.157,8.633 15.157,8.619 L15.157,8.619 z M16.799,8.51 C16.799,8.46 16.787,8.416 16.765,8.377 C16.742,8.339 16.717,8.31 16.69,8.292 C16.662,8.274 16.642,8.267 16.628,8.272 C16.565,8.276 16.549,8.292 16.581,8.32 C16.59,8.324 16.599,8.329 16.608,8.333 C16.672,8.351 16.712,8.422 16.731,8.544 C16.731,8.558 16.749,8.553 16.785,8.531 L16.799,8.51 z M21.228,16.227 C21.278,16.284 21.305,16.338 21.309,16.39 C21.314,16.443 21.308,16.494 21.292,16.544 C21.276,16.594 21.241,16.644 21.187,16.694 C21.132,16.744 21.079,16.788 21.027,16.826 C20.974,16.865 20.906,16.907 20.822,16.953 C20.738,16.998 20.667,17.035 20.608,17.065 C20.549,17.095 20.476,17.13 20.39,17.171 C20.303,17.211 20.242,17.241 20.206,17.259 C20.033,17.345 19.839,17.473 19.623,17.641 C19.407,17.809 19.236,17.954 19.109,18.077 C19.031,18.149 18.877,18.194 18.645,18.21 C18.414,18.226 18.211,18.193 18.039,18.111 C17.957,18.07 17.89,18.017 17.838,17.951 C17.786,17.885 17.748,17.827 17.725,17.777 C17.703,17.727 17.653,17.683 17.575,17.644 C17.498,17.606 17.392,17.584 17.255,17.579 C17.055,17.575 16.76,17.573 16.369,17.573 C16.283,17.573 16.154,17.576 15.981,17.583 C15.808,17.59 15.677,17.595 15.586,17.6 C15.386,17.604 15.205,17.638 15.044,17.702 C14.883,17.766 14.761,17.834 14.68,17.906 C14.598,17.979 14.499,18.044 14.383,18.101 C14.267,18.157 14.146,18.184 14.019,18.179 C13.887,18.174 13.635,18.104 13.262,17.968 C12.89,17.832 12.558,17.734 12.268,17.675 C12.181,17.657 12.065,17.635 11.92,17.61 C11.775,17.585 11.661,17.565 11.579,17.549 C11.498,17.533 11.408,17.511 11.31,17.484 C11.213,17.457 11.136,17.424 11.082,17.385 C11.027,17.347 10.989,17.302 10.966,17.252 C10.921,17.148 10.937,16.997 11.014,16.799 C11.091,16.602 11.132,16.478 11.136,16.428 C11.141,16.355 11.132,16.264 11.109,16.155 C11.087,16.046 11.064,15.95 11.041,15.866 C11.018,15.782 11.008,15.699 11.01,15.617 C11.013,15.535 11.037,15.474 11.082,15.433 C11.146,15.379 11.275,15.347 11.47,15.338 C11.666,15.329 11.802,15.301 11.879,15.256 C12.015,15.174 12.111,15.095 12.165,15.017 C12.22,14.94 12.247,14.824 12.247,14.67 C12.247,14.799 12.368,14.466 12.349,14.357 C12.336,14.284 12.331,14.198 12.336,14.098 C12.34,13.966 12.363,13.848 12.404,13.743 C12.445,13.639 12.499,13.532 12.567,13.423 C12.636,13.314 12.685,13.219 12.717,13.137 C12.754,13.041 12.814,12.878 12.898,12.646 C12.982,12.415 13.049,12.237 13.099,12.115 C13.149,11.992 13.217,11.854 13.303,11.699 C13.39,11.545 13.478,11.422 13.569,11.331 C14.069,10.682 14.35,10.239 14.414,10.003 C14.359,9.494 14.323,8.79 14.305,7.89 C14.296,7.481 14.35,7.137 14.468,6.858 C14.587,6.579 14.827,6.341 15.191,6.146 C15.368,6.051 15.604,6.003 15.899,6.003 C16.14,5.998 16.381,6.029 16.622,6.095 C16.862,6.161 17.064,6.255 17.228,6.378 C17.487,6.568 17.695,6.844 17.851,7.206 C18.008,7.567 18.075,7.902 18.052,8.211 C18.03,8.642 18.098,9.128 18.257,9.669 C18.411,10.182 18.713,10.677 19.163,11.154 C19.413,11.422 19.639,11.792 19.841,12.265 C20.043,12.737 20.178,13.171 20.246,13.566 C20.283,13.789 20.294,13.981 20.281,14.142 C20.267,14.303 20.24,14.429 20.199,14.52 C20.158,14.611 20.258,14.977 20.321,14.922 C20.326,15.063 20.344,15.191 20.376,15.307 C20.408,15.423 20.441,15.515 20.475,15.583 C20.509,15.651 20.555,15.716 20.614,15.777 C20.673,15.839 20.721,15.882 20.757,15.907 C20.794,15.932 20.843,15.961 20.904,15.995 C20.965,16.029 21.003,16.051 21.016,16.06 C21.107,16.114 21.178,16.17 21.228,16.227 z" fill="#FFFFFF" id="Page-1"/>
  </g>
</svg>
